<svg width="13" height="13" viewBox="0 0 13 13" fill="none" xmlns="http://www.w3.org/2000/svg">
<g clip-path="url(#clip0_335_1168)">
<path d="M9.15791 2.84216H2.84216V9.15791H9.15791V2.84216Z" fill="white"/>
<path d="M9.15792 12L12 9.15784L10.579 8.91541L9.15792 9.15784L8.89856 10.4577L9.15792 12Z" fill="#EA4335"/>
<path d="M0 9.15784V11.0526C0 11.576 0.423937 12 0.947344 12H2.84212L3.13392 10.5789L2.84212 9.15784L1.2937 8.91541L0 9.15784Z" fill="#188038"/>
<path d="M12 2.84212V0.947344C12 0.423937 11.5761 0 11.0527 0H9.15792C8.98504 0.704813 8.89856 1.22348 8.89856 1.55606C8.89856 1.88859 8.98504 2.31731 9.15792 2.84212C9.78651 3.02212 10.2602 3.11212 10.579 3.11212C10.8978 3.11212 11.3714 3.02212 12 2.84212Z" fill="#1967D2"/>
<path d="M12 2.84216H9.15784V9.15791H12V2.84216Z" fill="#FBBC04"/>
<path d="M9.15791 9.15784H2.84216V12H9.15791V9.15784Z" fill="#34A853"/>
<path d="M9.15787 0H0.947391C0.423938 0 0 0.423937 0 0.947344V9.15787H2.84212V2.84212H9.15787V0Z" fill="#4285F4"/>
<path d="M4.13764 7.74158C3.90158 7.58211 3.73813 7.34923 3.64893 7.04126L4.19685 6.81551C4.24653 7.00498 4.33339 7.15184 4.45738 7.25604C4.58052 7.36025 4.73052 7.41158 4.90578 7.41158C5.08499 7.41158 5.23893 7.35711 5.3676 7.24812C5.49632 7.13918 5.56105 7.00025 5.56105 6.83211C5.56105 6.65998 5.49313 6.51945 5.35738 6.41051C5.22158 6.30158 5.05105 6.24711 4.84738 6.24711H4.53078V5.70476H4.81499C4.99025 5.70476 5.13786 5.65737 5.25786 5.56259C5.37786 5.4679 5.43786 5.33839 5.43786 5.17339C5.43786 5.02658 5.38419 4.90972 5.27685 4.82211C5.1695 4.73445 5.03366 4.69025 4.86866 4.69025C4.7076 4.69025 4.57972 4.7329 4.48499 4.81892C4.39031 4.9052 4.31912 5.01415 4.27813 5.13551L3.73579 4.90972C3.8076 4.70604 3.93946 4.52604 4.13286 4.37051C4.32632 4.21498 4.57339 4.13684 4.87339 4.13684C5.09525 4.13684 5.29499 4.1795 5.47185 4.26551C5.64866 4.35158 5.7876 4.47078 5.88786 4.62237C5.98818 4.77472 6.03786 4.94525 6.03786 5.13472C6.03786 5.32812 5.99132 5.49158 5.89818 5.62578C5.80499 5.75998 5.69052 5.86259 5.55472 5.93445V5.96679C5.73007 6.03909 5.88237 6.15783 5.99525 6.31025C6.10972 6.46418 6.16738 6.64812 6.16738 6.8629C6.16738 7.07759 6.11286 7.26945 6.00393 7.43759C5.89499 7.60578 5.74424 7.73839 5.55313 7.83472C5.36132 7.93104 5.14579 7.98003 4.90658 7.98003C4.62946 7.98078 4.37371 7.90104 4.13764 7.74158ZM7.50308 5.02259L6.90154 5.45759L6.60074 5.00131L7.67994 4.22286H8.09361V7.89472H7.50308V5.02259Z" fill="#4285F4"/>
<g clip-path="url(#clip1_335_1168)">
<rect x="6" y="6" width="7" height="7" rx="3.5" fill="white"/>
<path d="M11.5417 6H7.45834C6.65332 6.00097 6.00097 6.65332 6 7.45834V11.5417C6.00097 12.3467 6.65332 12.999 7.45834 13H11.5417C12.3467 12.999 12.999 12.3467 13 11.5417V7.45834C12.999 6.65332 12.3467 6.00097 11.5417 6ZM11.8333 8.35638L9.13425 11.0555C8.90649 11.2833 8.53714 11.2834 8.30929 11.0556C8.30923 11.0556 8.30918 11.0555 8.30912 11.0555L7.16666 9.9133C7.05253 9.79917 7.05253 9.61413 7.16666 9.50001C7.28079 9.38589 7.46583 9.38588 7.57995 9.50001L8.72211 10.6422L11.4215 7.94309C11.5356 7.82937 11.7203 7.82969 11.834 7.94381C11.9478 8.05795 11.9475 8.24265 11.8333 8.35638Z" fill="#3E9C75"/>
</g>
<rect x="5.9" y="5.9" width="7.2" height="7.2" rx="3.6" stroke="white" stroke-width="0.2"/>
</g>
<defs>
<clipPath id="clip0_335_1168">
<rect width="13" height="13" fill="white"/>
</clipPath>
<clipPath id="clip1_335_1168">
<rect x="6" y="6" width="7" height="7" rx="3.5" fill="white"/>
</clipPath>
</defs>
</svg>
