<svg xmlns="http://www.w3.org/2000/svg" xmlns:xlink="http://www.w3.org/1999/xlink" width="450" zoomAndPan="magnify" viewBox="0 0 337.5 136.499996" height="182" preserveAspectRatio="xMidYMid meet" version="1.2"><defs><clipPath id="0de0c68587"><path d="M 0.367188 7.878906 L 121.246094 7.878906 L 121.246094 129.703125 L 0.367188 129.703125 Z M 0.367188 7.878906 "/></clipPath><clipPath id="0852c9be9a"><path d="M 2.09375 7.878906 L 119.515625 7.878906 C 119.976562 7.878906 120.414062 8.0625 120.738281 8.382812 C 121.0625 8.707031 121.246094 9.148438 121.246094 9.605469 L 121.246094 127.800781 C 121.246094 128.257812 121.0625 128.699219 120.738281 129.023438 C 120.414062 129.347656 119.976562 129.527344 119.515625 129.527344 L 2.09375 129.527344 C 1.636719 129.527344 1.195312 129.347656 0.871094 129.023438 C 0.550781 128.699219 0.367188 128.257812 0.367188 127.800781 L 0.367188 9.605469 C 0.367188 9.148438 0.550781 8.707031 0.871094 8.382812 C 1.195312 8.0625 1.636719 7.878906 2.09375 7.878906 Z M 2.09375 7.878906 "/></clipPath><clipPath id="92a2667c3e"><path d="M 66.199219 19.472656 L 110.023438 19.472656 L 110.023438 63.46875 L 66.199219 63.46875 Z M 66.199219 19.472656 "/></clipPath><clipPath id="a77afe42bf"><path d="M 67.925781 19.472656 L 108.296875 19.472656 C 108.753906 19.472656 109.191406 19.652344 109.515625 19.976562 C 109.839844 20.300781 110.023438 20.742188 110.023438 21.199219 L 110.023438 61.582031 C 110.023438 62.039062 109.839844 62.480469 109.515625 62.804688 C 109.191406 63.128906 108.753906 63.308594 108.296875 63.308594 L 67.925781 63.308594 C 67.46875 63.308594 67.027344 63.128906 66.703125 62.804688 C 66.378906 62.480469 66.199219 62.039062 66.199219 61.582031 L 66.199219 21.199219 C 66.199219 20.742188 66.378906 20.300781 66.703125 19.976562 C 67.027344 19.652344 67.46875 19.472656 67.925781 19.472656 Z M 67.925781 19.472656 "/></clipPath><clipPath id="3f331afba0"><path d="M 34.335938 63.308594 L 66.199219 63.308594 L 66.199219 95.296875 L 34.335938 95.296875 Z M 34.335938 63.308594 "/></clipPath><clipPath id="64005ac136"><path d="M 36.066406 63.308594 L 64.46875 63.308594 C 64.929688 63.308594 65.367188 63.492188 65.691406 63.816406 C 66.015625 64.140625 66.199219 64.578125 66.199219 65.039062 L 66.199219 93.453125 C 66.199219 93.910156 66.015625 94.351562 65.691406 94.675781 C 65.367188 95 64.929688 95.179688 64.46875 95.179688 L 36.066406 95.179688 C 35.605469 95.179688 35.167969 95 34.84375 94.675781 C 34.519531 94.351562 34.335938 93.910156 34.335938 93.453125 L 34.335938 65.039062 C 34.335938 64.578125 34.519531 64.140625 34.84375 63.816406 C 35.167969 63.492188 35.605469 63.308594 36.066406 63.308594 Z M 36.066406 63.308594 "/></clipPath><clipPath id="ce5a7e86f0"><path d="M 11.589844 95.179688 L 34.335938 95.179688 L 34.335938 118 L 11.589844 118 Z M 11.589844 95.179688 "/></clipPath><clipPath id="d8458cea88"><path d="M 13.316406 95.179688 L 32.609375 95.179688 C 33.066406 95.179688 33.507812 95.363281 33.832031 95.6875 C 34.15625 96.011719 34.335938 96.449219 34.335938 96.910156 L 34.335938 116.207031 C 34.335938 116.667969 34.15625 117.105469 33.832031 117.429688 C 33.507812 117.753906 33.066406 117.9375 32.609375 117.9375 L 13.316406 117.9375 C 12.859375 117.9375 12.417969 117.753906 12.09375 117.429688 C 11.769531 117.105469 11.589844 116.667969 11.589844 116.207031 L 11.589844 96.910156 C 11.589844 96.449219 11.769531 96.011719 12.09375 95.6875 C 12.417969 95.363281 12.859375 95.179688 13.316406 95.179688 Z M 13.316406 95.179688 "/></clipPath><clipPath id="b065c48dcd"><path d="M 287 18 L 336.636719 18 L 336.636719 70 L 287 70 Z M 287 18 "/></clipPath><clipPath id="128075c600"><path d="M 308 86 L 336.636719 86 L 336.636719 117 L 308 117 Z M 308 86 "/></clipPath></defs><g id="bf5964ad6c"><g clip-rule="nonzero" clip-path="url(#0de0c68587)"><g clip-rule="nonzero" clip-path="url(#0852c9be9a)"><path style=" stroke:none;fill-rule:nonzero;fill:#ecedef;fill-opacity:1;" d="M 0.367188 7.878906 L 121.246094 7.878906 L 121.246094 129.703125 L 0.367188 129.703125 Z M 0.367188 7.878906 "/></g></g><g clip-rule="nonzero" clip-path="url(#92a2667c3e)"><g clip-rule="nonzero" clip-path="url(#a77afe42bf)"><path style=" stroke:none;fill-rule:nonzero;fill:#805ad5;fill-opacity:1;" d="M 66.199219 19.472656 L 110.023438 19.472656 L 110.023438 63.296875 L 66.199219 63.296875 Z M 66.199219 19.472656 "/></g></g><g clip-rule="nonzero" clip-path="url(#3f331afba0)"><g clip-rule="nonzero" clip-path="url(#64005ac136)"><path style=" stroke:none;fill-rule:nonzero;fill:#805ad5;fill-opacity:1;" d="M 34.335938 63.308594 L 66.199219 63.308594 L 66.199219 95.171875 L 34.335938 95.171875 Z M 34.335938 63.308594 "/></g></g><g clip-rule="nonzero" clip-path="url(#ce5a7e86f0)"><g clip-rule="nonzero" clip-path="url(#d8458cea88)"><path style=" stroke:none;fill-rule:nonzero;fill:#805ad5;fill-opacity:1;" d="M 11.589844 95.179688 L 34.335938 95.179688 L 34.335938 117.929688 L 11.589844 117.929688 Z M 11.589844 95.179688 "/></g></g><g style="fill:#ecedef;fill-opacity:1;"><g transform="translate(141.759422, 69.94513)"><path style="stroke:none" d="M 17.1875 -26.9375 L 20.75 -26.9375 C 24.0625 -26.9375 26.539062 -27.59375 28.1875 -28.90625 C 29.832031 -30.21875 30.65625 -32.125 30.65625 -34.625 C 30.65625 -37.15625 29.960938 -39.023438 28.578125 -40.234375 C 27.203125 -41.441406 25.039062 -42.046875 22.09375 -42.046875 L 17.1875 -42.046875 Z M 41.5625 -35.015625 C 41.5625 -29.535156 39.847656 -25.34375 36.421875 -22.4375 C 33.003906 -19.539062 28.140625 -18.09375 21.828125 -18.09375 L 17.1875 -18.09375 L 17.1875 0 L 6.40625 0 L 6.40625 -50.890625 L 22.65625 -50.890625 C 28.832031 -50.890625 33.523438 -49.5625 36.734375 -46.90625 C 39.953125 -44.25 41.5625 -40.285156 41.5625 -35.015625 Z M 41.5625 -35.015625 "/></g></g><g style="fill:#ecedef;fill-opacity:1;"><g transform="translate(186.517695, 69.94513)"><path style="stroke:none" d="M 47.828125 -50.890625 L 47.828125 -17.953125 C 47.828125 -14.203125 46.984375 -10.910156 45.296875 -8.078125 C 43.617188 -5.242188 41.1875 -3.070312 38 -1.5625 C 34.820312 -0.0507812 31.066406 0.703125 26.734375 0.703125 C 20.191406 0.703125 15.109375 -0.972656 11.484375 -4.328125 C 7.867188 -7.679688 6.0625 -12.269531 6.0625 -18.09375 L 6.0625 -50.890625 L 16.8125 -50.890625 L 16.8125 -19.734375 C 16.8125 -15.816406 17.597656 -12.941406 19.171875 -11.109375 C 20.753906 -9.273438 23.367188 -8.359375 27.015625 -8.359375 C 30.535156 -8.359375 33.085938 -9.28125 34.671875 -11.125 C 36.265625 -12.96875 37.0625 -15.859375 37.0625 -19.796875 L 37.0625 -50.890625 Z M 47.828125 -50.890625 "/></g></g><g style="fill:#ecedef;fill-opacity:1;"><g transform="translate(240.394683, 69.94513)"><path style="stroke:none" d="M 17.1875 -28.296875 L 20.671875 -28.296875 C 24.085938 -28.296875 26.601562 -28.863281 28.21875 -30 C 29.84375 -31.132812 30.65625 -32.921875 30.65625 -35.359375 C 30.65625 -37.773438 29.828125 -39.492188 28.171875 -40.515625 C 26.515625 -41.535156 23.945312 -42.046875 20.46875 -42.046875 L 17.1875 -42.046875 Z M 17.1875 -19.53125 L 17.1875 0 L 6.40625 0 L 6.40625 -50.890625 L 21.234375 -50.890625 C 28.148438 -50.890625 33.265625 -49.628906 36.578125 -47.109375 C 39.898438 -44.585938 41.5625 -40.765625 41.5625 -35.640625 C 41.5625 -32.648438 40.734375 -29.988281 39.078125 -27.65625 C 37.429688 -25.320312 35.101562 -23.492188 32.09375 -22.171875 L 47.0625 0 L 35.078125 0 L 22.9375 -19.53125 Z M 17.1875 -19.53125 "/></g></g><g clip-rule="nonzero" clip-path="url(#b065c48dcd)"><g style="fill:#ecedef;fill-opacity:1;"><g transform="translate(287.450037, 69.94513)"><path style="stroke:none" d="M 37.5625 0 L 33.859375 -12.109375 L 15.3125 -12.109375 L 11.625 0 L 0 0 L 17.953125 -51.09375 L 31.15625 -51.09375 L 49.1875 0 Z M 31.296875 -21.15625 C 27.878906 -32.132812 25.957031 -38.34375 25.53125 -39.78125 C 25.101562 -41.21875 24.796875 -42.351562 24.609375 -43.1875 C 23.835938 -40.21875 21.644531 -32.875 18.03125 -21.15625 Z M 31.296875 -21.15625 "/></g></g></g><g style="fill:#ecedef;fill-opacity:1;"><g transform="translate(144.734365, 116.694243)"><path style="stroke:none" d="M 15.21875 0 L 8.90625 0 L 8.90625 -24.5 L 0.828125 -24.5 L 0.828125 -29.75 L 23.296875 -29.75 L 23.296875 -24.5 L 15.21875 -24.5 Z M 15.21875 0 "/></g></g><g style="fill:#ecedef;fill-opacity:1;"><g transform="translate(168.861179, 116.694243)"><path style="stroke:none" d="M 14.875 0 L 1.34375 0 L 1.34375 -3.578125 L 4.96875 -5.25 L 4.96875 -24.5 L 1.34375 -26.171875 L 1.34375 -29.75 L 14.875 -29.75 L 14.875 -26.171875 L 11.25 -24.5 L 11.25 -5.25 L 14.875 -3.578125 Z M 14.875 0 "/></g></g><g style="fill:#ecedef;fill-opacity:1;"><g transform="translate(185.074567, 116.694243)"><path style="stroke:none" d="M 16.34375 0 L 9.171875 -23.34375 L 9 -23.34375 C 9.25 -18.59375 9.375 -15.425781 9.375 -13.84375 L 9.375 0 L 3.75 0 L 3.75 -29.75 L 12.328125 -29.75 L 19.375 -7 L 19.5 -7 L 26.953125 -29.75 L 35.546875 -29.75 L 35.546875 0 L 29.671875 0 L 29.671875 -14.078125 C 29.671875 -14.742188 29.679688 -15.507812 29.703125 -16.375 C 29.722656 -17.25 29.8125 -19.554688 29.96875 -23.296875 L 29.78125 -23.296875 L 22.125 0 Z M 16.34375 0 "/></g></g><g style="fill:#ecedef;fill-opacity:1;"><g transform="translate(224.356931, 116.694243)"><path style="stroke:none" d="M 20.875 0 L 3.75 0 L 3.75 -29.75 L 20.875 -29.75 L 20.875 -24.578125 L 10.046875 -24.578125 L 10.046875 -18.046875 L 20.125 -18.046875 L 20.125 -12.875 L 10.046875 -12.875 L 10.046875 -5.203125 L 20.875 -5.203125 Z M 20.875 0 "/></g></g><g style="fill:#ecedef;fill-opacity:1;"><g transform="translate(247.690374, 116.694243)"><path style="stroke:none" d="M 3.75 -29.75 L 13 -29.75 C 17.21875 -29.75 20.28125 -29.144531 22.1875 -27.9375 C 24.09375 -26.738281 25.046875 -24.832031 25.046875 -22.21875 C 25.046875 -20.4375 24.628906 -18.976562 23.796875 -17.84375 C 22.960938 -16.707031 21.851562 -16.023438 20.46875 -15.796875 L 20.46875 -15.59375 C 22.351562 -15.164062 23.710938 -14.375 24.546875 -13.21875 C 25.378906 -12.070312 25.796875 -10.539062 25.796875 -8.625 C 25.796875 -5.914062 24.816406 -3.800781 22.859375 -2.28125 C 20.898438 -0.757812 18.238281 0 14.875 0 L 3.75 0 Z M 10.046875 -17.96875 L 13.71875 -17.96875 C 15.425781 -17.96875 16.660156 -18.226562 17.421875 -18.75 C 18.191406 -19.28125 18.578125 -20.160156 18.578125 -21.390625 C 18.578125 -22.523438 18.160156 -23.335938 17.328125 -23.828125 C 16.492188 -24.328125 15.175781 -24.578125 13.375 -24.578125 L 10.046875 -24.578125 Z M 10.046875 -12.96875 L 10.046875 -5.203125 L 14.15625 -5.203125 C 15.894531 -5.203125 17.175781 -5.535156 18 -6.203125 C 18.832031 -6.867188 19.25 -7.890625 19.25 -9.265625 C 19.25 -11.734375 17.484375 -12.96875 13.953125 -12.96875 Z M 10.046875 -12.96875 "/></g></g><g style="fill:#ecedef;fill-opacity:1;"><g transform="translate(275.68236, 116.694243)"><path style="stroke:none" d="M 30.75 -14.921875 C 30.75 -9.992188 29.523438 -6.207031 27.078125 -3.5625 C 24.640625 -0.914062 21.140625 0.40625 16.578125 0.40625 C 12.023438 0.40625 8.523438 -0.914062 6.078125 -3.5625 C 3.640625 -6.207031 2.421875 -10.003906 2.421875 -14.953125 C 2.421875 -19.898438 3.644531 -23.679688 6.09375 -26.296875 C 8.539062 -28.910156 12.050781 -30.21875 16.625 -30.21875 C 21.195312 -30.21875 24.691406 -28.898438 27.109375 -26.265625 C 29.535156 -23.640625 30.75 -19.859375 30.75 -14.921875 Z M 9.03125 -14.921875 C 9.03125 -11.585938 9.660156 -9.082031 10.921875 -7.40625 C 12.179688 -5.726562 14.066406 -4.890625 16.578125 -4.890625 C 21.609375 -4.890625 24.125 -8.234375 24.125 -14.921875 C 24.125 -21.617188 21.625 -24.96875 16.625 -24.96875 C 14.113281 -24.96875 12.21875 -24.125 10.9375 -22.4375 C 9.664062 -20.75 9.03125 -18.242188 9.03125 -14.921875 Z M 9.03125 -14.921875 "/></g></g><g clip-rule="nonzero" clip-path="url(#128075c600)"><g style="fill:#ecedef;fill-opacity:1;"><g transform="translate(308.841471, 116.694243)"><path style="stroke:none" d="M 27.796875 0 L 20.59375 0 L 13.671875 -11.25 L 6.75 0 L 0 0 L 9.875 -15.34375 L 0.625 -29.75 L 7.59375 -29.75 L 14 -19.046875 L 20.28125 -29.75 L 27.078125 -29.75 L 17.75 -15 Z M 27.796875 0 "/></g></g></g></g></svg>